<?xml version="1.0" encoding="UTF-8"?>
<svg version="1.1" xmlns="http://www.w3.org/2000/svg" width="512" height="512">
<path d="M0 0 C13.28083022 11.1870981 20.17880339 26.47923891 27.1640625 41.97265625 C27.6379541 43.02026123 28.1118457 44.06786621 28.60009766 45.1472168 C29.52424962 47.19928943 30.4398639 49.25523732 31.34521484 51.31567383 C38.21122575 66.64209333 45.98232315 78.15221106 61.1027832 85.6953125 C67.24054933 88.7766529 72.31956689 92.44503962 77.46484375 97.00390625 C78.14546875 97.54273438 78.82609375 98.0815625 79.52734375 98.63671875 C95.99587876 111.95307323 106.24578898 134.20306958 108.46484375 155.00390625 C109.79981528 179.7181306 104.8621331 200.80445992 88.71875 220.08984375 C76.21401432 233.34426383 59.88084532 240.10104325 42.46484375 244.00390625 C41.31435547 244.29201172 41.31435547 244.29201172 40.140625 244.5859375 C16.95293699 248.20795592 -5.30282487 241.46634928 -25.36157227 230.21411133 C-33.14232506 225.91119712 -40.63280409 222.51236744 -49.53515625 225.00390625 C-53.98495028 226.76680279 -58.25240211 228.87477198 -62.53515625 231.00390625 C-72.34137324 235.82466887 -81.88400878 240.32348503 -92.53515625 243.00390625 C-93.37433594 243.22820312 -94.21351563 243.4525 -95.078125 243.68359375 C-114.60638216 248.10394343 -135.71451783 244.72635728 -153.53515625 236.00390625 C-154.30859375 235.63652344 -155.08203125 235.26914062 -155.87890625 234.890625 C-172.93156962 226.15413725 -185.00480108 211.27491461 -191.43359375 193.4609375 C-198.94009822 169.90329049 -196.77287416 146.27260871 -186.125 124.0625 C-182.87350495 117.82830016 -179.0165928 112.40434707 -174.53515625 107.00390625 C-174.09945312 106.42253906 -173.66375 105.84117187 -173.21484375 105.2421875 C-165.59604671 95.45636735 -153.44813582 87.72766134 -142.34765625 82.50390625 C-126.0074346 73.78912137 -117.94418753 52.22047494 -111.28515625 35.94140625 C-108.5397541 29.23701555 -105.68943753 22.97882896 -101.53515625 17.00390625 C-100.86871094 16.03195313 -100.20226562 15.06 -99.515625 14.05859375 C-88.0908417 -1.90809114 -73.52471883 -12.16812884 -54.0234375 -15.6171875 C-33.18300395 -17.88093 -16.26900566 -12.80964853 0 0 Z " fill="#000000" transform="translate(300.53515625,216.99609375)"/>
<path d="M0 0 C18.05841853 14.06537692 28.60101109 33.55973911 31.58984375 56.15234375 C33.61358503 75.13696431 29.41873118 95.44223875 18 111 C12.06796166 118.06924613 5.57715729 124.32837477 -3 128 C-3.85851562 128.37640625 -4.71703125 128.7528125 -5.6015625 129.140625 C-17.34082689 134.05795699 -30.82591798 134.98231299 -42.87744141 130.26513672 C-52.22807486 126.26548305 -59.93485095 121.4184065 -67 114 C-67.5465625 113.46117187 -68.093125 112.92234375 -68.65625 112.3671875 C-83.36350047 96.79940642 -88.75194554 74.04039394 -88.25 53.2421875 C-87.41790792 34.82798969 -79.71777095 16.45654918 -66.17578125 3.80859375 C-46.6697365 -12.40558708 -21.33316294 -13.41175801 0 0 Z " fill="#000000" transform="translate(113,182)"/>
<path d="M0 0 C17.05834538 12.25800698 25.59552253 29.77167698 29.80078125 49.921875 C33.15425233 71.57970904 27.41928859 92.70297809 15.33203125 110.67578125 C6.26045156 122.48403861 -5.78541491 130.95235642 -20.66796875 133.67578125 C-37.56741093 134.7783117 -52.08824354 131.55790012 -65.39453125 120.38671875 C-79.37563813 107.08143577 -88.29467514 88.15434312 -88.87109375 68.76953125 C-89.19631968 45.58112949 -84.29133532 25.3828232 -68.02734375 8 C-49.45903065 -10.29163294 -22.34729379 -14.54920743 0 0 Z " fill="#000000" transform="translate(210.66796875,58.32421875)"/>
<path d="M0 0 C17.11795595 12.29753956 25.44521113 29.13864239 29.12890625 49.56640625 C31.22326467 71.17840272 26.97399438 93.29920524 13.44140625 110.75390625 C2.75905574 123.01944444 -10.73988533 132.77758446 -27.43359375 133.95703125 C-44.03133072 134.2059973 -57.12661285 129.65079776 -69.2109375 118.16015625 C-84.91318208 102.06600872 -90.23989456 82.97949019 -90.02685547 60.97583008 C-89.48781917 42.37625573 -83.16063957 24.6885822 -70.55859375 10.75390625 C-70.02878906 10.14417969 -69.49898438 9.53445312 -68.953125 8.90625 C-50.86419821 -10.64354023 -22.20962403 -14.22414123 0 0 Z " fill="#000000" transform="translate(457.55859375,181.24609375)"/>
<path d="M0 0 C14.84390827 12.11757392 24.0509008 29.06845178 27 48 C28.74532774 70.85107903 26.09458141 92.82662316 10.84765625 110.921875 C10.23792969 111.60765625 9.62820313 112.2934375 9 113 C8.37996094 113.74765625 7.75992188 114.4953125 7.12109375 115.265625 C-1.6244901 125.02350603 -14.76787447 131.18148165 -27.7890625 132.3359375 C-44.96491985 132.5108444 -58.07352154 127.77857583 -70.6875 115.875 C-86.01363398 99.87110546 -92.06700238 79.71355592 -92 58 C-91.31349797 39.36451131 -84.60339436 19.27864489 -71 6 C-70.50371094 5.505 -70.00742187 5.01 -69.49609375 4.5 C-50.0473502 -13.49594584 -21.67223264 -15.25651505 0 0 Z " fill="#000000" transform="translate(363,60)"/>
</svg>
